<?xml version="1.0" encoding="iso-8859-1"?>
<!-- Generator: Adobe Illustrator 19.1.1, SVG Export Plug-In . SVG Version: 6.00 Build 0)  -->
<svg version="1.1" id="Lager_1" xmlns="http://www.w3.org/2000/svg" xmlns:xlink="http://www.w3.org/1999/xlink" x="0px" y="0px"
	 viewBox="0 0 80 80" style="enable-background:new 0 0 80 80;" xml:space="preserve">
<rect style="fill:none;" width="80" height="80"/>
<radialGradient id="SVGID_1_" cx="40" cy="40" r="25.8197" gradientUnits="userSpaceOnUse">
	<stop  offset="0.7903" style="stop-color:#FFFFFF"/>
	<stop  offset="0.8978" style="stop-color:#000000;stop-opacity:0.3"/>
</radialGradient>
<path style="fill:none;stroke:url(#SVGID_1_);stroke-width:2;stroke-miterlimit:10;" d="M15.18,40.004
	c0,13.707,11.11,24.816,24.816,24.816c13.714,0,24.823-11.11,24.823-24.816c0-13.707-11.109-24.823-24.823-24.823
	C26.29,15.18,15.18,26.296,15.18,40.004z"/>
<path style="fill:#FFFFFF;" d="M3.124,13.271c0.837-1.123,8.271-9.839,9.453-10.159h55.686c0,0,7.555,8.259,9.396,10.165
	l-0.401,54.664c0,0-6.117,7.312-8.411,9.315l-55.204,0.128c0,0-9.11-8.767-9.745-9.333L3.124,13.271z"/>
<path style="fill:none;stroke:#12100B;stroke-miterlimit:10;" d="M4.294,67.745c2.743,3.531,5.994,6.647,9.645,9.238"/>
<path style="fill:none;stroke:#12100B;stroke-miterlimit:10;" d="M12.88,3.507C9.325,6.188,6.176,9.97,3.54,13.563"/>
<path style="fill:none;stroke:#12100B;stroke-miterlimit:10;" d="M77.26,13.563c-2.464-3.605-5.941-7.65-9.292-10.056"/>
<path style="fill:none;stroke:#12100B;stroke-miterlimit:10;" d="M68.587,76.835c3.726-2.272,6.538-5.21,8.215-9.09"/>
<path style="opacity:0.63;fill:#12100B;" d="M33.657,28.74c-0.015,2.639-2.15,4.781-4.787,4.764
	c-2.639-0.015-4.78-2.148-4.764-4.787c0.016-2.637,2.149-4.777,4.788-4.762C31.53,23.969,33.671,26.104,33.657,28.74z"/>
<path style="opacity:0.63;fill:#12100B;" d="M55.893,28.866c-0.014,2.636-2.149,4.777-4.786,4.761
	c-2.664-0.006-4.78-2.148-4.764-4.787c0.016-2.637,2.149-4.777,4.788-4.762C53.768,24.094,55.887,26.235,55.893,28.866z"/>
<path style="opacity:0.63;fill:#12100B;" d="M55.894,51.283c0.008,2.627-2.161,4.754-4.788,4.762
	c-2.639-0.015-4.755-2.157-4.764-4.787c0.016-2.637,2.173-4.787,4.812-4.771C53.791,46.503,55.909,48.644,55.894,51.283z"/>
<path style="opacity:0.63;fill:#12100B;" d="M33.657,51.149c-0.015,2.639-2.16,4.756-4.787,4.764
	c-2.664-0.006-4.78-2.148-4.764-4.787c-0.008-2.627,2.149-4.777,4.788-4.762C31.53,46.378,33.65,48.521,33.657,51.149z"/>
<path style="fill:none;stroke:#989492;stroke-miterlimit:10;" d="M33.657,28.74c-0.015,2.639-2.15,4.781-4.787,4.764
	c-2.639-0.015-4.78-2.148-4.764-4.787c0.016-2.637,2.149-4.777,4.788-4.762C31.53,23.969,33.671,26.104,33.657,28.74z"/>
<path style="fill:none;stroke:#989492;stroke-miterlimit:10;" d="M55.893,28.866c-0.014,2.636-2.149,4.777-4.786,4.761
	c-2.664-0.006-4.78-2.148-4.764-4.787c0.016-2.637,2.149-4.777,4.788-4.762C53.768,24.094,55.887,26.235,55.893,28.866z"/>
<path style="fill:none;stroke:#989492;stroke-miterlimit:10;" d="M55.894,51.283c0.008,2.627-2.161,4.754-4.788,4.762
	c-2.639-0.015-4.755-2.157-4.764-4.787c0.016-2.637,2.173-4.787,4.812-4.771C53.791,46.503,55.909,48.644,55.894,51.283z"/>
<path style="fill:none;stroke:#989492;stroke-miterlimit:10;" d="M33.657,51.149c-0.015,2.639-2.16,4.756-4.787,4.764
	c-2.664-0.006-4.78-2.148-4.764-4.787c-0.008-2.627,2.149-4.777,4.788-4.762C31.53,46.378,33.65,48.521,33.657,51.149z"/>
<path style="opacity:0.2;fill:#35322F;" d="M25.724,29.797c-0.426,2.053,2.421,8.02,4.165,11.257c0.581,1.078-4.65,6.818-4.8,9.492
	c-0.15,2.674,3.315,6.681,7.685,3.285c4.686-3.642,5.843-4.958,6.407-4.759c1.546,0.547,6.445,5.92,10.604,5.444
	c5.468-0.625,4.197-3.534,3.672-4.714s-7.976-4.392-8.056-6.538c-0.083-2.25,8.618-9.638,8.805-12.29
	c0.134-1.894-2.323-6.107-7.027-2.245c-2.312,1.899-7.063,7.395-7.561,7.528c-0.498,0.133-7.982-8.297-9.017-9.003
	C26.039,24.145,26.152,27.732,25.724,29.797z"/>
<path style="fill:none;stroke:#35322F;stroke-width:2.5;stroke-linecap:round;stroke-miterlimit:10;" d="M26.951,29.913
	c3.047,5.695,18.737,21.226,23.733,23.481"/>
<path style="fill:none;stroke:#35322F;stroke-width:2.5;stroke-linecap:round;stroke-miterlimit:10;" d="M27.572,27.165
	c3.823,4.974,15.219,17.486,25.061,25.129"/>
<path style="fill:none;stroke:#35322F;stroke-width:2.5;stroke-linecap:round;stroke-miterlimit:10;" d="M30.251,26.891
	c4.796,4.996,19.479,19.949,22.631,23.047"/>
<path style="fill:none;stroke:#423E3C;stroke-width:2.5;stroke-linecap:round;stroke-miterlimit:10;" d="M26.704,50.546
	c5.77-8.668,16.932-18.616,23.081-23.381"/>
<path style="fill:none;stroke:#423E3C;stroke-width:2.5;stroke-linecap:round;stroke-miterlimit:10;" d="M52.577,27.747
	c-5.002,4.023-17.929,15.705-24.674,25.047"/>
<path style="fill:none;stroke:#423E3C;stroke-width:2.5;stroke-linecap:round;stroke-miterlimit:10;" d="M30.601,52.794
	c9.142-9.692,11.185-11.945,22.282-22.132"/>
<g>
</g>
<g>
</g>
<g>
</g>
<g>
</g>
<g>
</g>
<g>
</g>
<g>
</g>
<g>
</g>
<g>
</g>
<g>
</g>
<g>
</g>
<g>
</g>
<g>
</g>
<g>
</g>
<g>
</g>
</svg>
