<?xml version="1.0" encoding="iso-8859-1"?>
<!-- Generator: Adobe Illustrator 19.1.1, SVG Export Plug-In . SVG Version: 6.00 Build 0)  -->
<svg version="1.1" id="Lager_1" xmlns="http://www.w3.org/2000/svg" xmlns:xlink="http://www.w3.org/1999/xlink" x="0px" y="0px"
	 viewBox="0 0 80 80" style="enable-background:new 0 0 80 80;" xml:space="preserve">
<g>
	<path style="opacity:0.35;" d="M71.273,58.605c0,3.812-9.468,13.415-13.06,13.415H27.681c-4.04,0-14.65-10.051-14.65-12.967
		l0.058-37.672c0-10.027,1.797-9.131,7.185-9.131h44.001c5.612,0,6.998,0.002,6.998,10.029V58.605z"/>
	<path style="fill:#FFFFFF;stroke:#000000;stroke-width:0.8808;stroke-miterlimit:10;" d="M67.017,54.356
		c0,3.812-9.466,13.416-13.06,13.416H23.428c-4.04,0-14.649-10.051-14.649-12.968l0.058-37.673C8.836,7.105,10.632,8,16.021,8
		h44.001c5.61,0,6.995,0.002,6.995,10.027V54.356z"/>
	<path style="opacity:0.63;" d="M67.019,54.357c0,3.812-9.468,13.415-13.06,13.415H23.426c-4.04,0-14.65-10.051-14.65-12.967
		l0.058-37.672c0-10.027,1.797-9.131,7.185-9.131H60.02c5.612,0,6.998,0.002,6.998,10.029V54.357z"/>
	
		<line style="fill:none;stroke:#000000;stroke-width:0.8808;stroke-miterlimit:10;" x1="12.877" y1="18.027" x2="62.938" y2="18.027"/>
</g>
<rect style="fill:none;" width="80" height="80"/>
<g>
</g>
<g>
</g>
<g>
</g>
<g>
</g>
<g>
</g>
<g>
</g>
<g>
</g>
<g>
</g>
<g>
</g>
<g>
</g>
<g>
</g>
<g>
</g>
<g>
</g>
<g>
</g>
<g>
</g>
</svg>
